<?xml version="1.0" encoding="UTF-8"?>
<svg xmlns="http://www.w3.org/2000/svg" xmlns:xlink="http://www.w3.org/1999/xlink" width="726.15pt" height="191.74pt" viewBox="0 0 726.15 191.74" version="1.1">
<defs>
<clipPath id="clip1">
  <path d="M 596 0 L 726.148438 0 L 726.148438 131 L 596 131 Z M 596 0 "/>
</clipPath>
<clipPath id="clip2">
  <path d="M 1 159 L 724 159 L 724 191.738281 L 1 191.738281 Z M 1 159 "/>
</clipPath>
</defs>
<g id="surface1">
<path style=" stroke:none;fill-rule:nonzero;fill:rgb(0%,36.470032%,67.0578%);fill-opacity:1;" d="M 102.789063 58.785156 C 93.628906 53.308594 80.410156 50.882813 64.367188 47.070313 C 51.519531 44.1875 44.449219 42.792969 44.449219 36.273438 C 44.449219 30.640625 48.878906 27.921875 58.050781 27.921875 C 68.488281 27.957031 74.105469 31.375 75.359375 38.691406 L 116.230469 38.742188 C 113.832031 14.078125 93.496094 0.0234375 58.808594 0 C 22.8125 -0.0351563 2.472656 15.542969 2.441406 39.175781 C 2.40625 64.195313 20.148438 71.03125 50.90625 78.808594 C 69.195313 83.425781 77.96875 83.609375 77.9375 91.621094 C 77.9375 96.980469 72.351563 100.589844 61.707031 100.589844 C 49.960938 100.570313 44.171875 97.117188 41.957031 88.054688 L 0 88.015625 C 2.371094 114.054688 23.808594 129.832031 59.839844 129.867188 C 99.199219 129.886719 119.90625 114.136719 119.945313 87.597656 C 119.945313 74.898438 114.554688 65.65625 102.789063 58.785156 "/>
<path style=" stroke:none;fill-rule:nonzero;fill:rgb(0%,36.470032%,67.0578%);fill-opacity:1;" d="M 503.613281 59.148438 C 494.441406 53.652344 481.253906 51.230469 465.214844 47.4375 C 452.300781 44.53125 445.21875 43.140625 445.257813 36.632813 C 445.257813 30.980469 449.722656 28.273438 458.859375 28.273438 C 469.335938 28.273438 474.902344 31.734375 476.203125 39.054688 L 517.039063 39.089844 C 514.640625 14.429688 494.304688 0.363281 459.617188 0.328125 C 423.617188 0.304688 403.28125 15.886719 403.253906 39.515625 C 403.214844 64.523438 420.9375 71.386719 451.714844 79.152344 C 470.023438 83.757813 478.78125 83.964844 478.746094 92.003906 C 478.746094 97.324219 473.179688 100.949219 462.535156 100.929688 C 450.789063 100.929688 445.019531 97.476563 442.746094 88.410156 L 400.8125 88.371094 C 403.175781 114.394531 424.617188 130.160156 460.675781 130.210938 C 500.007813 130.25 520.757813 114.496094 520.757813 87.964844 C 520.757813 75.257813 515.390625 66.015625 503.613281 59.148438 "/>
<path style=" stroke:none;fill-rule:nonzero;fill:rgb(0%,36.470032%,67.0578%);fill-opacity:1;" d="M 249.125 77.59375 L 300.679688 77.621094 L 300.679688 49.339844 L 249.15625 49.304688 L 249.15625 32.832031 L 310.125 32.925781 L 310.15625 3.433594 L 208.253906 3.363281 L 208.132813 126.566406 L 312.535156 126.65625 L 312.546875 96.691406 L 249.125 96.617188 "/>
<g clip-path="url(#clip1)" clip-rule="nonzero">
<path style=" stroke:none;fill-rule:nonzero;fill:rgb(0%,36.470032%,67.0578%);fill-opacity:1;" d="M 686.40625 79.167969 C 685.105469 92.378906 676.96875 99.554688 664.257813 99.542969 C 647.355469 99.542969 638.464844 87.875 638.492188 65.429688 C 638.53125 42.640625 646.707031 31.339844 663.191406 31.359375 C 676.621094 31.359375 684.039063 37.875 685.3125 50.410156 L 725.464844 50.417969 C 723.164063 18.707031 700.597656 0.550781 662.710938 0.53125 C 621.839844 0.496094 596.246094 25.125 596.214844 65.394531 C 596.179688 105.3125 621.359375 130.351563 663.464844 130.386719 C 701.246094 130.402344 723.917969 111.230469 726.148438 79.191406 "/>
</g>
<g clip-path="url(#clip2)" clip-rule="nonzero">
<path style=" stroke:none;fill-rule:nonzero;fill:rgb(99.598694%,76.499939%,14.099121%);fill-opacity:1;" d="M 723.226563 191.738281 L 1.457031 191.675781 L 1.371094 160.09375 L 723.394531 159.949219 Z M 723.226563 191.738281 "/>
</g>
</g>
</svg>
